# xmcd
#
# Track frame offsets:
#	150
#	18035
#	37912
#
# Disc length: 726 seconds
#
# Revision: 0
# Processed by: cddbd v1.5.1PL0 Copyright (c) Steve Scherf et al.
# Submitted via: audiograbber 1.83.01
#
DISCID=1202d403
DTITLE=Mike and The Mechanics - Everybody Gets A Second Chance (MCD)
DYEAR=1991
DGENRE=Pop
TTITLE0=Everybody Gets A Second Chance 
TTITLE1=Get Up
TTITLE2=I Think I've Got The Message
EXTD=
EXTT0=
EXTT1=
EXTT2=
PLAYORDER=
